<!DOCTYPE svg PUBLIC "-//W3C//DTD SVG 1.1//EN" "http://www.w3.org/Graphics/SVG/1.1/DTD/svg11.dtd">
<!-- Uploaded to: SVG Repo, www.svgrepo.com, Transformed by: SVG Repo Mixer Tools -->
<svg width="800px" height="800px" viewBox="-4 0 34 34" xmlns="http://www.w3.org/2000/svg" fill="#000000">
<g id="SVGRepo_bgCarrier" stroke-width="0"/>
<g id="SVGRepo_tracerCarrier" stroke-linecap="round" stroke-linejoin="round"/>
<g id="SVGRepo_iconCarrier"> <g fill="none" fill-rule="evenodd"> <g> <path d="M1 1.993c0-.55.45-.993.995-.993h17.01c.55 0 1.34.275 1.776.625l3.44 2.75c.43.345.78 1.065.78 1.622v26.006c0 .55-.447.997-1 .997H2c-.552 0-1-.452-1-.993V1.993z" stroke="#f99942" stroke-width="2"/> <g fill="#f99942"> <path d="M8 12h12v1H8z"/> <path d="M6 12h1v1H6z"/> <path d="M6 15h1v1H6z"/> <path d="M8 15h12v1H8z"/> <path d="M6 18h1v1H6z"/> <path d="M8 18h12v1H8z"/> <path d="M6 21h1v1H6z"/> <path d="M8 21h12v1H8z"/> </g> <path fill="#f99942" d="M18 2h1v6h-1z"/> <path fill="#f99942" d="M18 7h6v1h-6z"/> </g> </g> </g>
</svg>